<mxfile host="65bd71144e">
    <diagram id="kvD2daJdhNMlw6qQa2Bw" name="Page-1">
        <mxGraphModel dx="1564" dy="816" grid="1" gridSize="10" guides="1" tooltips="1" connect="1" arrows="1" fold="1" page="1" pageScale="1" pageWidth="850" pageHeight="1100" background="#ffffff" math="0" shadow="0">
            <root>
                <mxCell id="0"/>
                <mxCell id="1" parent="0"/>
                <mxCell id="5" style="edgeStyle=none;html=1;fontColor=#1A1A1A;fillColor=#eeeeee;strokeColor=#36393d;entryX=0.5;entryY=0;entryDx=0;entryDy=0;" edge="1" parent="1" source="2" target="8">
                    <mxGeometry relative="1" as="geometry">
                        <mxPoint x="310" y="350" as="targetPoint"/>
                    </mxGeometry>
                </mxCell>
                <mxCell id="27" style="edgeStyle=none;html=1;entryX=0;entryY=0.5;entryDx=0;entryDy=0;strokeColor=#000000;fontColor=#1A1A1A;" edge="1" parent="1" source="2" target="22">
                    <mxGeometry relative="1" as="geometry"/>
                </mxCell>
                <mxCell id="2" value="&lt;font color=&quot;#1a1a1a&quot;&gt;encrypt / decrypt ?&lt;/font&gt;" style="rhombus;whiteSpace=wrap;html=1;fillColor=#FFFFFF;strokeColor=#36393d;" vertex="1" parent="1">
                    <mxGeometry x="270" y="180" width="80" height="80" as="geometry"/>
                </mxCell>
                <mxCell id="21" style="edgeStyle=none;html=1;entryX=0;entryY=0.5;entryDx=0;entryDy=0;strokeColor=#000000;fontColor=#1A1A1A;exitX=0;exitY=0.5;exitDx=0;exitDy=0;" edge="1" parent="1" source="8" target="2">
                    <mxGeometry relative="1" as="geometry">
                        <Array as="points">
                            <mxPoint x="110" y="640"/>
                            <mxPoint x="110" y="220"/>
                        </Array>
                    </mxGeometry>
                </mxCell>
                <mxCell id="8" value="encode" style="whiteSpace=wrap;html=1;fontColor=#1A1A1A;fillColor=#FFFFFF;gradientColor=none;strokeColor=#000000;" vertex="1" parent="1">
                    <mxGeometry x="250" y="610" width="120" height="60" as="geometry"/>
                </mxCell>
                <mxCell id="9" value="&lt;span style=&quot;&quot;&gt;ask user desired shift&lt;/span&gt;" style="text;html=1;align=center;verticalAlign=middle;resizable=0;points=[];autosize=1;strokeColor=none;fillColor=none;fontColor=#1A1A1A;" vertex="1" parent="1">
                    <mxGeometry x="315" y="480" width="140" height="30" as="geometry"/>
                </mxCell>
                <mxCell id="10" value="&lt;span style=&quot;&quot;&gt;ask user message&lt;/span&gt;" style="text;html=1;align=center;verticalAlign=middle;resizable=0;points=[];autosize=1;strokeColor=none;fillColor=none;fontColor=#1A1A1A;" vertex="1" parent="1">
                    <mxGeometry x="315" y="380" width="120" height="30" as="geometry"/>
                </mxCell>
                <mxCell id="14" value="ENCODE" style="text;html=1;align=center;verticalAlign=middle;resizable=0;points=[];autosize=1;strokeColor=none;fillColor=none;fontColor=#1A1A1A;" vertex="1" parent="1">
                    <mxGeometry x="230" y="270" width="70" height="30" as="geometry"/>
                </mxCell>
                <mxCell id="15" value="print result" style="text;html=1;align=center;verticalAlign=middle;resizable=0;points=[];autosize=1;strokeColor=none;fillColor=none;fontColor=#1A1A1A;" vertex="1" parent="1">
                    <mxGeometry x="140" y="610" width="80" height="30" as="geometry"/>
                </mxCell>
                <mxCell id="28" style="edgeStyle=none;html=1;entryX=0.5;entryY=0;entryDx=0;entryDy=0;strokeColor=#000000;fontColor=#1A1A1A;" edge="1" parent="1" source="22" target="2">
                    <mxGeometry relative="1" as="geometry">
                        <Array as="points">
                            <mxPoint x="790" y="20"/>
                            <mxPoint x="310" y="20"/>
                        </Array>
                    </mxGeometry>
                </mxCell>
                <mxCell id="22" value="decode" style="whiteSpace=wrap;html=1;fontColor=#1A1A1A;fillColor=#FFFFFF;gradientColor=none;strokeColor=#000000;" vertex="1" parent="1">
                    <mxGeometry x="730" y="190" width="120" height="60" as="geometry"/>
                </mxCell>
                <mxCell id="23" value="&lt;span style=&quot;&quot;&gt;ask user desired shift&lt;/span&gt;" style="text;html=1;align=center;verticalAlign=middle;resizable=0;points=[];autosize=1;strokeColor=none;fillColor=none;fontColor=#1A1A1A;" vertex="1" parent="1">
                    <mxGeometry x="570" y="170" width="140" height="30" as="geometry"/>
                </mxCell>
                <mxCell id="24" value="&lt;span style=&quot;&quot;&gt;ask user message&lt;/span&gt;" style="text;html=1;align=center;verticalAlign=middle;resizable=0;points=[];autosize=1;strokeColor=none;fillColor=none;fontColor=#1A1A1A;" vertex="1" parent="1">
                    <mxGeometry x="410" y="170" width="120" height="30" as="geometry"/>
                </mxCell>
                <mxCell id="25" value="DECODE" style="text;html=1;align=center;verticalAlign=middle;resizable=0;points=[];autosize=1;strokeColor=none;fillColor=none;fontColor=#1A1A1A;" vertex="1" parent="1">
                    <mxGeometry x="370" y="220" width="70" height="30" as="geometry"/>
                </mxCell>
                <mxCell id="26" value="print result" style="text;html=1;align=center;verticalAlign=middle;resizable=0;points=[];autosize=1;strokeColor=none;fillColor=none;fontColor=#1A1A1A;" vertex="1" parent="1">
                    <mxGeometry x="800" y="100" width="80" height="30" as="geometry"/>
                </mxCell>
            </root>
        </mxGraphModel>
    </diagram>
</mxfile>